<svg width="15" height="15" viewBox="0 0 15 15" fill="none" xmlns="http://www.w3.org/2000/svg">
<path d="M12.8906 1.64062H2.10938C1.8501 1.64062 1.64062 1.8501 1.64062 2.10938V12.8906C1.64062 13.1499 1.8501 13.3594 2.10938 13.3594H12.8906C13.1499 13.3594 13.3594 13.1499 13.3594 12.8906V2.10938C13.3594 1.8501 13.1499 1.64062 12.8906 1.64062ZM11.5371 5.06104H10.6011C9.86719 5.06104 9.7251 5.40967 9.7251 5.92236V7.05176H11.4771L11.2485 8.81982H9.7251V13.3594H7.89844V8.82129H6.37061V7.05176H7.89844V5.74805C7.89844 4.23486 8.82275 3.41016 10.1733 3.41016C10.8208 3.41016 11.376 3.4585 11.5386 3.48047V5.06104H11.5371Z" fill="#13233E"/>
</svg>
