<svg width="15" height="15" viewBox="0 0 15 15" fill="none" xmlns="http://www.w3.org/2000/svg">
<path d="M7.49995 5.54737C6.42475 5.54737 5.54731 6.42481 5.54731 7.50001C5.54731 8.5752 6.42475 9.45265 7.49995 9.45265C8.57514 9.45265 9.45258 8.5752 9.45258 7.50001C9.45258 6.42481 8.57514 5.54737 7.49995 5.54737ZM13.3564 7.50001C13.3564 6.69142 13.3637 5.89015 13.3183 5.08302C13.2729 4.14552 13.059 3.31349 12.3735 2.62794C11.6865 1.94093 10.8559 1.72852 9.9184 1.68311C9.10981 1.6377 8.30854 1.64503 7.50141 1.64503C6.69282 1.64503 5.89155 1.6377 5.08442 1.68311C4.14692 1.72852 3.31489 1.94239 2.62934 2.62794C1.94233 3.31495 1.72993 4.14552 1.68452 5.08302C1.63911 5.89161 1.64643 6.69288 1.64643 7.50001C1.64643 8.30714 1.63911 9.10987 1.68452 9.917C1.72993 10.8545 1.9438 11.6865 2.62934 12.3721C3.31635 13.0591 4.14692 13.2715 5.08442 13.3169C5.89301 13.3623 6.69428 13.355 7.50141 13.355C8.31001 13.355 9.11128 13.3623 9.9184 13.3169C10.8559 13.2715 11.6879 13.0576 12.3735 12.3721C13.0605 11.6851 13.2729 10.8545 13.3183 9.917C13.3652 9.10987 13.3564 8.3086 13.3564 7.50001ZM7.49995 10.5044C5.83735 10.5044 4.49555 9.16261 4.49555 7.50001C4.49555 5.83741 5.83735 4.49561 7.49995 4.49561C9.16254 4.49561 10.5043 5.83741 10.5043 7.50001C10.5043 9.16261 9.16254 10.5044 7.49995 10.5044ZM10.6274 5.07423C10.2392 5.07423 9.92573 4.76075 9.92573 4.37257C9.92573 3.98438 10.2392 3.67091 10.6274 3.67091C11.0156 3.67091 11.3291 3.98438 11.3291 4.37257C11.3292 4.46474 11.3111 4.55604 11.2759 4.64122C11.2407 4.7264 11.189 4.8038 11.1238 4.86897C11.0586 4.93415 10.9812 4.98583 10.896 5.02105C10.8109 5.05627 10.7196 5.07434 10.6274 5.07423Z" fill="#13233E"/>
</svg>
